<mxfile host="app.diagrams.net" modified="2024-03-11T12:21:42.535Z" agent="Mozilla/5.0 (Windows NT 10.0; Win64; x64) AppleWebKit/537.36 (KHTML, like Gecko) Chrome/122.0.0.0 Safari/537.36 Edg/122.0.0.0" etag="gXU519i8DO_JKAvdeNgw" version="24.0.4" type="github">
  <diagram name="Page-1" id="2YBvvXClWsGukQMizWep">
    <mxGraphModel dx="928" dy="1011" grid="1" gridSize="10" guides="1" tooltips="1" connect="1" arrows="1" fold="1" page="1" pageScale="1" pageWidth="850" pageHeight="1100" math="0" shadow="0">
      <root>
        <mxCell id="0" />
        <mxCell id="1" parent="0" />
        <mxCell id="m6TL4uyU6H2lGprT68yy-1" value="" style="ellipse;whiteSpace=wrap;html=1;aspect=fixed;fillColor=#dae8fc;strokeColor=#6c8ebf;sketch=1;curveFitting=1;jiggle=2;fillStyle=hachure;" vertex="1" parent="1">
          <mxGeometry x="100" y="270" width="140" height="140" as="geometry" />
        </mxCell>
        <mxCell id="m6TL4uyU6H2lGprT68yy-2" value="&lt;b&gt;&lt;font face=&quot;Comic Sans MS&quot; style=&quot;font-size: 23px;&quot;&gt;Process A&lt;/font&gt;&lt;/b&gt;" style="rounded=0;whiteSpace=wrap;html=1;gradientColor=none;fillColor=none;strokeColor=none;" vertex="1" parent="1">
          <mxGeometry x="110" y="310" width="120" height="60" as="geometry" />
        </mxCell>
        <mxCell id="m6TL4uyU6H2lGprT68yy-3" value="" style="ellipse;whiteSpace=wrap;html=1;aspect=fixed;fillColor=#dae8fc;strokeColor=#6c8ebf;sketch=1;curveFitting=1;jiggle=2;fillStyle=hachure;" vertex="1" parent="1">
          <mxGeometry x="330" y="270" width="140" height="140" as="geometry" />
        </mxCell>
        <mxCell id="m6TL4uyU6H2lGprT68yy-4" value="&lt;b&gt;&lt;font face=&quot;Comic Sans MS&quot; style=&quot;font-size: 23px;&quot;&gt;Process B&lt;/font&gt;&lt;/b&gt;" style="rounded=0;whiteSpace=wrap;html=1;gradientColor=none;fillColor=none;strokeColor=none;" vertex="1" parent="1">
          <mxGeometry x="340" y="310" width="120" height="60" as="geometry" />
        </mxCell>
        <mxCell id="m6TL4uyU6H2lGprT68yy-5" value="" style="ellipse;whiteSpace=wrap;html=1;aspect=fixed;fillColor=#dae8fc;strokeColor=#6c8ebf;sketch=1;curveFitting=1;jiggle=2;fillStyle=hachure;" vertex="1" parent="1">
          <mxGeometry x="550" y="270" width="140" height="140" as="geometry" />
        </mxCell>
        <mxCell id="m6TL4uyU6H2lGprT68yy-6" value="&lt;b&gt;&lt;font face=&quot;Comic Sans MS&quot; style=&quot;font-size: 23px;&quot;&gt;Process C&lt;/font&gt;&lt;/b&gt;" style="rounded=0;whiteSpace=wrap;html=1;gradientColor=none;fillColor=none;strokeColor=none;" vertex="1" parent="1">
          <mxGeometry x="560" y="310" width="120" height="60" as="geometry" />
        </mxCell>
        <mxCell id="m6TL4uyU6H2lGprT68yy-7" value="" style="rounded=1;whiteSpace=wrap;html=1;fillColor=#f8cecc;strokeColor=#b85450;fillStyle=hatch;sketch=1;curveFitting=1;jiggle=2;arcSize=39;" vertex="1" parent="1">
          <mxGeometry x="210" y="120" width="120" height="60" as="geometry" />
        </mxCell>
        <mxCell id="m6TL4uyU6H2lGprT68yy-27" style="edgeStyle=orthogonalEdgeStyle;rounded=0;orthogonalLoop=1;jettySize=auto;html=1;exitX=0.5;exitY=1;exitDx=0;exitDy=0;entryX=0.5;entryY=0;entryDx=0;entryDy=0;strokeWidth=2;" edge="1" parent="1" source="m6TL4uyU6H2lGprT68yy-8" target="m6TL4uyU6H2lGprT68yy-1">
          <mxGeometry relative="1" as="geometry" />
        </mxCell>
        <mxCell id="m6TL4uyU6H2lGprT68yy-8" value="" style="ellipse;whiteSpace=wrap;html=1;aspect=fixed;" vertex="1" parent="1">
          <mxGeometry x="230" y="140" width="20" height="20" as="geometry" />
        </mxCell>
        <mxCell id="m6TL4uyU6H2lGprT68yy-9" value="" style="ellipse;whiteSpace=wrap;html=1;aspect=fixed;" vertex="1" parent="1">
          <mxGeometry x="260" y="140" width="20" height="20" as="geometry" />
        </mxCell>
        <mxCell id="m6TL4uyU6H2lGprT68yy-10" value="" style="ellipse;whiteSpace=wrap;html=1;aspect=fixed;" vertex="1" parent="1">
          <mxGeometry x="290" y="140" width="20" height="20" as="geometry" />
        </mxCell>
        <mxCell id="m6TL4uyU6H2lGprT68yy-20" value="" style="rounded=1;whiteSpace=wrap;html=1;fillColor=#f8cecc;strokeColor=#b85450;fillStyle=hatch;sketch=1;curveFitting=1;jiggle=2;arcSize=42;" vertex="1" parent="1">
          <mxGeometry x="470" y="520" width="120" height="60" as="geometry" />
        </mxCell>
        <mxCell id="m6TL4uyU6H2lGprT68yy-28" style="edgeStyle=orthogonalEdgeStyle;rounded=0;orthogonalLoop=1;jettySize=auto;html=1;exitX=0;exitY=0.5;exitDx=0;exitDy=0;entryX=0.5;entryY=1;entryDx=0;entryDy=0;strokeWidth=2;" edge="1" parent="1" source="m6TL4uyU6H2lGprT68yy-21" target="m6TL4uyU6H2lGprT68yy-3">
          <mxGeometry relative="1" as="geometry" />
        </mxCell>
        <mxCell id="m6TL4uyU6H2lGprT68yy-21" value="" style="ellipse;whiteSpace=wrap;html=1;aspect=fixed;" vertex="1" parent="1">
          <mxGeometry x="500" y="540" width="20" height="20" as="geometry" />
        </mxCell>
        <mxCell id="m6TL4uyU6H2lGprT68yy-29" style="edgeStyle=orthogonalEdgeStyle;rounded=0;orthogonalLoop=1;jettySize=auto;html=1;exitX=0.5;exitY=0;exitDx=0;exitDy=0;entryX=0.5;entryY=1;entryDx=0;entryDy=0;strokeWidth=2;" edge="1" parent="1" source="m6TL4uyU6H2lGprT68yy-22" target="m6TL4uyU6H2lGprT68yy-5">
          <mxGeometry relative="1" as="geometry" />
        </mxCell>
        <mxCell id="m6TL4uyU6H2lGprT68yy-22" value="" style="ellipse;whiteSpace=wrap;html=1;aspect=fixed;" vertex="1" parent="1">
          <mxGeometry x="540" y="540" width="20" height="20" as="geometry" />
        </mxCell>
        <mxCell id="m6TL4uyU6H2lGprT68yy-31" value="&lt;font size=&quot;1&quot; face=&quot;Comic Sans MS&quot;&gt;&lt;b style=&quot;font-size: 20px;&quot;&gt;HDD&lt;/b&gt;&lt;/font&gt;" style="rounded=0;whiteSpace=wrap;html=1;gradientColor=none;fillColor=none;strokeColor=none;" vertex="1" parent="1">
          <mxGeometry x="210" y="60" width="120" height="60" as="geometry" />
        </mxCell>
        <mxCell id="m6TL4uyU6H2lGprT68yy-32" value="&lt;font size=&quot;1&quot; face=&quot;Comic Sans MS&quot;&gt;&lt;b style=&quot;font-size: 20px;&quot;&gt;CPU&lt;/b&gt;&lt;/font&gt;" style="rounded=0;whiteSpace=wrap;html=1;gradientColor=none;fillColor=none;strokeColor=none;" vertex="1" parent="1">
          <mxGeometry x="470" y="580" width="120" height="60" as="geometry" />
        </mxCell>
        <mxCell id="m6TL4uyU6H2lGprT68yy-36" style="edgeStyle=orthogonalEdgeStyle;rounded=0;orthogonalLoop=1;jettySize=auto;html=1;exitX=0.5;exitY=1;exitDx=0;exitDy=0;entryX=1;entryY=0.5;entryDx=0;entryDy=0;strokeWidth=2;fillColor=#ffe6cc;strokeColor=#d79b00;" edge="1" parent="1" source="m6TL4uyU6H2lGprT68yy-33" target="m6TL4uyU6H2lGprT68yy-20">
          <mxGeometry relative="1" as="geometry" />
        </mxCell>
        <mxCell id="m6TL4uyU6H2lGprT68yy-33" value="" style="ellipse;whiteSpace=wrap;html=1;aspect=fixed;fillColor=#dae8fc;strokeColor=#6c8ebf;sketch=1;curveFitting=1;jiggle=2;fillStyle=hachure;" vertex="1" parent="1">
          <mxGeometry x="800" y="270" width="140" height="140" as="geometry" />
        </mxCell>
        <mxCell id="m6TL4uyU6H2lGprT68yy-34" value="&lt;b&gt;&lt;font face=&quot;Comic Sans MS&quot; style=&quot;font-size: 23px;&quot;&gt;Process D&lt;/font&gt;&lt;/b&gt;" style="rounded=0;whiteSpace=wrap;html=1;gradientColor=none;fillColor=none;strokeColor=none;" vertex="1" parent="1">
          <mxGeometry x="810" y="310" width="120" height="60" as="geometry" />
        </mxCell>
        <mxCell id="m6TL4uyU6H2lGprT68yy-37" value="&lt;font size=&quot;1&quot; face=&quot;Comic Sans MS&quot;&gt;&lt;b style=&quot;font-size: 15px;&quot;&gt;Allocation&lt;/b&gt;&lt;/font&gt;" style="rounded=0;whiteSpace=wrap;html=1;gradientColor=none;fillColor=none;strokeColor=none;" vertex="1" parent="1">
          <mxGeometry x="150" y="180" width="90" height="40" as="geometry" />
        </mxCell>
        <mxCell id="m6TL4uyU6H2lGprT68yy-38" value="&lt;font size=&quot;1&quot; face=&quot;Comic Sans MS&quot;&gt;&lt;b style=&quot;font-size: 15px;&quot;&gt;Allocation&lt;/b&gt;&lt;/font&gt;" style="rounded=0;whiteSpace=wrap;html=1;gradientColor=none;fillColor=none;strokeColor=none;" vertex="1" parent="1">
          <mxGeometry x="310" y="520" width="90" height="40" as="geometry" />
        </mxCell>
        <mxCell id="m6TL4uyU6H2lGprT68yy-39" value="&lt;font size=&quot;1&quot; face=&quot;Comic Sans MS&quot;&gt;&lt;b style=&quot;font-size: 15px;&quot;&gt;Allocation&lt;/b&gt;&lt;/font&gt;" style="rounded=0;whiteSpace=wrap;html=1;gradientColor=none;fillColor=none;strokeColor=none;" vertex="1" parent="1">
          <mxGeometry x="530" y="440" width="90" height="40" as="geometry" />
        </mxCell>
        <mxCell id="m6TL4uyU6H2lGprT68yy-40" value="&lt;font face=&quot;Comic Sans MS&quot; color=&quot;#cc6600&quot;&gt;&lt;span style=&quot;font-size: 15px;&quot;&gt;&lt;b&gt;Waiting&lt;/b&gt;&lt;/span&gt;&lt;/font&gt;" style="rounded=0;whiteSpace=wrap;html=1;gradientColor=none;fillColor=none;strokeColor=none;" vertex="1" parent="1">
          <mxGeometry x="670" y="510" width="90" height="40" as="geometry" />
        </mxCell>
        <mxCell id="m6TL4uyU6H2lGprT68yy-87" style="edgeStyle=orthogonalEdgeStyle;rounded=0;orthogonalLoop=1;jettySize=auto;html=1;exitX=0;exitY=1;exitDx=0;exitDy=0;entryX=0.5;entryY=0;entryDx=0;entryDy=0;fillColor=#ffe6cc;strokeColor=#d79b00;strokeWidth=2;" edge="1" parent="1" source="m6TL4uyU6H2lGprT68yy-41" target="m6TL4uyU6H2lGprT68yy-61">
          <mxGeometry relative="1" as="geometry" />
        </mxCell>
        <mxCell id="m6TL4uyU6H2lGprT68yy-41" value="" style="ellipse;whiteSpace=wrap;html=1;aspect=fixed;fillColor=#dae8fc;strokeColor=#6c8ebf;sketch=1;curveFitting=1;jiggle=2;fillStyle=hachure;" vertex="1" parent="1">
          <mxGeometry x="110" y="890" width="140" height="140" as="geometry" />
        </mxCell>
        <mxCell id="m6TL4uyU6H2lGprT68yy-42" value="&lt;b&gt;&lt;font face=&quot;Comic Sans MS&quot; style=&quot;font-size: 23px;&quot;&gt;Philosopher&lt;/font&gt;&lt;/b&gt;" style="rounded=0;whiteSpace=wrap;html=1;gradientColor=none;fillColor=none;strokeColor=none;" vertex="1" parent="1">
          <mxGeometry x="120" y="930" width="120" height="60" as="geometry" />
        </mxCell>
        <mxCell id="m6TL4uyU6H2lGprT68yy-90" style="edgeStyle=orthogonalEdgeStyle;rounded=0;orthogonalLoop=1;jettySize=auto;html=1;exitX=0.5;exitY=0;exitDx=0;exitDy=0;fillColor=#ffe6cc;strokeColor=#d79b00;strokeWidth=2;" edge="1" parent="1" source="m6TL4uyU6H2lGprT68yy-49">
          <mxGeometry relative="1" as="geometry">
            <mxPoint x="630" y="830" as="targetPoint" />
          </mxGeometry>
        </mxCell>
        <mxCell id="m6TL4uyU6H2lGprT68yy-49" value="" style="ellipse;whiteSpace=wrap;html=1;aspect=fixed;fillColor=#dae8fc;strokeColor=#6c8ebf;sketch=1;curveFitting=1;jiggle=2;fillStyle=hachure;" vertex="1" parent="1">
          <mxGeometry x="590" y="890" width="140" height="140" as="geometry" />
        </mxCell>
        <mxCell id="m6TL4uyU6H2lGprT68yy-50" value="&lt;b&gt;&lt;font face=&quot;Comic Sans MS&quot; style=&quot;font-size: 23px;&quot;&gt;Philosopher&lt;/font&gt;&lt;/b&gt;" style="rounded=0;whiteSpace=wrap;html=1;gradientColor=none;fillColor=none;strokeColor=none;" vertex="1" parent="1">
          <mxGeometry x="600" y="930" width="120" height="60" as="geometry" />
        </mxCell>
        <mxCell id="m6TL4uyU6H2lGprT68yy-86" style="edgeStyle=orthogonalEdgeStyle;rounded=0;orthogonalLoop=1;jettySize=auto;html=1;exitX=0;exitY=0.5;exitDx=0;exitDy=0;entryX=1;entryY=0.5;entryDx=0;entryDy=0;fillColor=#ffe6cc;strokeColor=#d79b00;strokeWidth=2;" edge="1" parent="1" source="m6TL4uyU6H2lGprT68yy-51" target="m6TL4uyU6H2lGprT68yy-57">
          <mxGeometry relative="1" as="geometry" />
        </mxCell>
        <mxCell id="m6TL4uyU6H2lGprT68yy-51" value="" style="ellipse;whiteSpace=wrap;html=1;aspect=fixed;fillColor=#dae8fc;strokeColor=#6c8ebf;sketch=1;curveFitting=1;jiggle=2;fillStyle=hachure;" vertex="1" parent="1">
          <mxGeometry x="350" y="700" width="140" height="140" as="geometry" />
        </mxCell>
        <mxCell id="m6TL4uyU6H2lGprT68yy-52" value="&lt;b&gt;&lt;font face=&quot;Comic Sans MS&quot; style=&quot;font-size: 23px;&quot;&gt;Philosopher&lt;/font&gt;&lt;/b&gt;" style="rounded=0;whiteSpace=wrap;html=1;gradientColor=none;fillColor=none;strokeColor=none;" vertex="1" parent="1">
          <mxGeometry x="360" y="740" width="120" height="60" as="geometry" />
        </mxCell>
        <mxCell id="m6TL4uyU6H2lGprT68yy-89" style="edgeStyle=orthogonalEdgeStyle;rounded=0;orthogonalLoop=1;jettySize=auto;html=1;exitX=1;exitY=0.5;exitDx=0;exitDy=0;entryX=0.5;entryY=1;entryDx=0;entryDy=0;fillColor=#ffe6cc;strokeColor=#d79b00;strokeWidth=2;" edge="1" parent="1" source="m6TL4uyU6H2lGprT68yy-53" target="m6TL4uyU6H2lGprT68yy-65">
          <mxGeometry relative="1" as="geometry" />
        </mxCell>
        <mxCell id="m6TL4uyU6H2lGprT68yy-53" value="" style="ellipse;whiteSpace=wrap;html=1;aspect=fixed;fillColor=#dae8fc;strokeColor=#6c8ebf;sketch=1;curveFitting=1;jiggle=2;fillStyle=hachure;" vertex="1" parent="1">
          <mxGeometry x="500" y="1170" width="140" height="140" as="geometry" />
        </mxCell>
        <mxCell id="m6TL4uyU6H2lGprT68yy-54" value="&lt;b&gt;&lt;font face=&quot;Comic Sans MS&quot; style=&quot;font-size: 23px;&quot;&gt;Philosopher&lt;/font&gt;&lt;/b&gt;" style="rounded=0;whiteSpace=wrap;html=1;gradientColor=none;fillColor=none;strokeColor=none;" vertex="1" parent="1">
          <mxGeometry x="510" y="1210" width="120" height="60" as="geometry" />
        </mxCell>
        <mxCell id="m6TL4uyU6H2lGprT68yy-88" style="edgeStyle=orthogonalEdgeStyle;rounded=0;orthogonalLoop=1;jettySize=auto;html=1;exitX=0.5;exitY=1;exitDx=0;exitDy=0;entryX=0;entryY=0.5;entryDx=0;entryDy=0;fillColor=#ffe6cc;strokeColor=#d79b00;strokeWidth=2;" edge="1" parent="1" source="m6TL4uyU6H2lGprT68yy-55" target="m6TL4uyU6H2lGprT68yy-67">
          <mxGeometry relative="1" as="geometry" />
        </mxCell>
        <mxCell id="m6TL4uyU6H2lGprT68yy-55" value="" style="ellipse;whiteSpace=wrap;html=1;aspect=fixed;fillColor=#dae8fc;strokeColor=#6c8ebf;sketch=1;curveFitting=1;jiggle=2;fillStyle=hachure;" vertex="1" parent="1">
          <mxGeometry x="190" y="1170" width="140" height="140" as="geometry" />
        </mxCell>
        <mxCell id="m6TL4uyU6H2lGprT68yy-56" value="&lt;b&gt;&lt;font face=&quot;Comic Sans MS&quot; style=&quot;font-size: 23px;&quot;&gt;Philosopher&lt;/font&gt;&lt;/b&gt;" style="rounded=0;whiteSpace=wrap;html=1;gradientColor=none;fillColor=none;strokeColor=none;" vertex="1" parent="1">
          <mxGeometry x="200" y="1210" width="120" height="60" as="geometry" />
        </mxCell>
        <mxCell id="m6TL4uyU6H2lGprT68yy-57" value="" style="rounded=1;whiteSpace=wrap;html=1;fillColor=#f8cecc;strokeColor=#b85450;fillStyle=hatch;sketch=1;curveFitting=1;jiggle=2;arcSize=39;" vertex="1" parent="1">
          <mxGeometry x="150" y="760" width="120" height="60" as="geometry" />
        </mxCell>
        <mxCell id="m6TL4uyU6H2lGprT68yy-69" value="" style="edgeStyle=orthogonalEdgeStyle;rounded=0;orthogonalLoop=1;jettySize=auto;html=1;strokeWidth=2;" edge="1" parent="1" source="m6TL4uyU6H2lGprT68yy-59" target="m6TL4uyU6H2lGprT68yy-41">
          <mxGeometry relative="1" as="geometry" />
        </mxCell>
        <mxCell id="m6TL4uyU6H2lGprT68yy-59" value="" style="ellipse;whiteSpace=wrap;html=1;aspect=fixed;" vertex="1" parent="1">
          <mxGeometry x="200" y="780" width="20" height="20" as="geometry" />
        </mxCell>
        <mxCell id="m6TL4uyU6H2lGprT68yy-61" value="" style="rounded=1;whiteSpace=wrap;html=1;fillColor=#f8cecc;strokeColor=#b85450;fillStyle=hatch;sketch=1;curveFitting=1;jiggle=2;arcSize=39;" vertex="1" parent="1">
          <mxGeometry x="80" y="1090" width="120" height="60" as="geometry" />
        </mxCell>
        <mxCell id="m6TL4uyU6H2lGprT68yy-82" style="edgeStyle=orthogonalEdgeStyle;rounded=0;orthogonalLoop=1;jettySize=auto;html=1;exitX=0.5;exitY=1;exitDx=0;exitDy=0;entryX=0;entryY=0.5;entryDx=0;entryDy=0;strokeWidth=2;" edge="1" parent="1" source="m6TL4uyU6H2lGprT68yy-62" target="m6TL4uyU6H2lGprT68yy-55">
          <mxGeometry relative="1" as="geometry" />
        </mxCell>
        <mxCell id="m6TL4uyU6H2lGprT68yy-62" value="" style="ellipse;whiteSpace=wrap;html=1;aspect=fixed;" vertex="1" parent="1">
          <mxGeometry x="130" y="1110" width="20" height="20" as="geometry" />
        </mxCell>
        <mxCell id="m6TL4uyU6H2lGprT68yy-63" value="" style="rounded=1;whiteSpace=wrap;html=1;fillColor=#f8cecc;strokeColor=#b85450;fillStyle=hatch;sketch=1;curveFitting=1;jiggle=2;arcSize=39;" vertex="1" parent="1">
          <mxGeometry x="560" y="760" width="120" height="60" as="geometry" />
        </mxCell>
        <mxCell id="m6TL4uyU6H2lGprT68yy-85" style="edgeStyle=orthogonalEdgeStyle;rounded=0;orthogonalLoop=1;jettySize=auto;html=1;exitX=0;exitY=0.5;exitDx=0;exitDy=0;entryX=1;entryY=0.5;entryDx=0;entryDy=0;strokeWidth=2;" edge="1" parent="1" source="m6TL4uyU6H2lGprT68yy-64" target="m6TL4uyU6H2lGprT68yy-51">
          <mxGeometry relative="1" as="geometry" />
        </mxCell>
        <mxCell id="m6TL4uyU6H2lGprT68yy-64" value="" style="ellipse;whiteSpace=wrap;html=1;aspect=fixed;" vertex="1" parent="1">
          <mxGeometry x="610" y="780" width="20" height="20" as="geometry" />
        </mxCell>
        <mxCell id="m6TL4uyU6H2lGprT68yy-65" value="" style="rounded=1;whiteSpace=wrap;html=1;fillColor=#f8cecc;strokeColor=#b85450;fillStyle=hatch;sketch=1;curveFitting=1;jiggle=2;arcSize=39;" vertex="1" parent="1">
          <mxGeometry x="630" y="1090" width="120" height="60" as="geometry" />
        </mxCell>
        <mxCell id="m6TL4uyU6H2lGprT68yy-84" style="edgeStyle=orthogonalEdgeStyle;rounded=0;orthogonalLoop=1;jettySize=auto;html=1;exitX=0.5;exitY=0;exitDx=0;exitDy=0;strokeWidth=2;" edge="1" parent="1" source="m6TL4uyU6H2lGprT68yy-66" target="m6TL4uyU6H2lGprT68yy-49">
          <mxGeometry relative="1" as="geometry" />
        </mxCell>
        <mxCell id="m6TL4uyU6H2lGprT68yy-66" value="" style="ellipse;whiteSpace=wrap;html=1;aspect=fixed;" vertex="1" parent="1">
          <mxGeometry x="680" y="1110" width="20" height="20" as="geometry" />
        </mxCell>
        <mxCell id="m6TL4uyU6H2lGprT68yy-67" value="" style="rounded=1;whiteSpace=wrap;html=1;fillColor=#f8cecc;strokeColor=#b85450;fillStyle=hatch;sketch=1;curveFitting=1;jiggle=2;arcSize=39;" vertex="1" parent="1">
          <mxGeometry x="360" y="1320" width="120" height="60" as="geometry" />
        </mxCell>
        <mxCell id="m6TL4uyU6H2lGprT68yy-83" style="edgeStyle=orthogonalEdgeStyle;rounded=0;orthogonalLoop=1;jettySize=auto;html=1;exitX=1;exitY=0.5;exitDx=0;exitDy=0;entryX=0.5;entryY=1;entryDx=0;entryDy=0;strokeWidth=2;" edge="1" parent="1" source="m6TL4uyU6H2lGprT68yy-68" target="m6TL4uyU6H2lGprT68yy-53">
          <mxGeometry relative="1" as="geometry" />
        </mxCell>
        <mxCell id="m6TL4uyU6H2lGprT68yy-68" value="" style="ellipse;whiteSpace=wrap;html=1;aspect=fixed;" vertex="1" parent="1">
          <mxGeometry x="410" y="1340" width="20" height="20" as="geometry" />
        </mxCell>
        <mxCell id="m6TL4uyU6H2lGprT68yy-103" style="edgeStyle=orthogonalEdgeStyle;rounded=0;orthogonalLoop=1;jettySize=auto;html=1;exitX=0.5;exitY=1;exitDx=0;exitDy=0;entryX=0;entryY=0.5;entryDx=0;entryDy=0;strokeWidth=2;fillColor=#ffe6cc;strokeColor=#d79b00;" edge="1" parent="1" source="m6TL4uyU6H2lGprT68yy-91" target="m6TL4uyU6H2lGprT68yy-93">
          <mxGeometry relative="1" as="geometry" />
        </mxCell>
        <mxCell id="m6TL4uyU6H2lGprT68yy-91" value="" style="ellipse;whiteSpace=wrap;html=1;aspect=fixed;fillColor=#dae8fc;strokeColor=#6c8ebf;sketch=1;curveFitting=1;jiggle=2;fillStyle=hachure;" vertex="1" parent="1">
          <mxGeometry x="60" y="1540" width="140" height="140" as="geometry" />
        </mxCell>
        <mxCell id="m6TL4uyU6H2lGprT68yy-92" value="&lt;b&gt;&lt;font face=&quot;Comic Sans MS&quot; style=&quot;font-size: 23px;&quot;&gt;Process A&lt;/font&gt;&lt;/b&gt;" style="rounded=0;whiteSpace=wrap;html=1;gradientColor=none;fillColor=none;strokeColor=none;" vertex="1" parent="1">
          <mxGeometry x="70" y="1580" width="120" height="60" as="geometry" />
        </mxCell>
        <mxCell id="m6TL4uyU6H2lGprT68yy-93" value="" style="rounded=1;whiteSpace=wrap;html=1;fillColor=#f8cecc;strokeColor=#b85450;fillStyle=hatch;sketch=1;curveFitting=1;jiggle=2;arcSize=39;" vertex="1" parent="1">
          <mxGeometry x="240" y="1730" width="120" height="60" as="geometry" />
        </mxCell>
        <mxCell id="m6TL4uyU6H2lGprT68yy-104" style="edgeStyle=orthogonalEdgeStyle;rounded=0;orthogonalLoop=1;jettySize=auto;html=1;exitX=1;exitY=0.5;exitDx=0;exitDy=0;entryX=0.5;entryY=1;entryDx=0;entryDy=0;strokeWidth=2;" edge="1" parent="1" source="m6TL4uyU6H2lGprT68yy-94" target="m6TL4uyU6H2lGprT68yy-98">
          <mxGeometry relative="1" as="geometry" />
        </mxCell>
        <mxCell id="m6TL4uyU6H2lGprT68yy-94" value="" style="ellipse;whiteSpace=wrap;html=1;aspect=fixed;" vertex="1" parent="1">
          <mxGeometry x="290" y="1750" width="20" height="20" as="geometry" />
        </mxCell>
        <mxCell id="m6TL4uyU6H2lGprT68yy-96" value="" style="rounded=1;whiteSpace=wrap;html=1;fillColor=#f8cecc;strokeColor=#b85450;fillStyle=hatch;sketch=1;curveFitting=1;jiggle=2;arcSize=39;" vertex="1" parent="1">
          <mxGeometry x="240" y="1450" width="120" height="60" as="geometry" />
        </mxCell>
        <mxCell id="m6TL4uyU6H2lGprT68yy-100" style="edgeStyle=orthogonalEdgeStyle;rounded=0;orthogonalLoop=1;jettySize=auto;html=1;exitX=0;exitY=0.5;exitDx=0;exitDy=0;entryX=0.5;entryY=0;entryDx=0;entryDy=0;strokeWidth=2;" edge="1" parent="1" source="m6TL4uyU6H2lGprT68yy-97" target="m6TL4uyU6H2lGprT68yy-91">
          <mxGeometry relative="1" as="geometry" />
        </mxCell>
        <mxCell id="m6TL4uyU6H2lGprT68yy-97" value="" style="ellipse;whiteSpace=wrap;html=1;aspect=fixed;" vertex="1" parent="1">
          <mxGeometry x="290" y="1470" width="20" height="20" as="geometry" />
        </mxCell>
        <mxCell id="m6TL4uyU6H2lGprT68yy-105" style="edgeStyle=orthogonalEdgeStyle;rounded=0;orthogonalLoop=1;jettySize=auto;html=1;exitX=0.5;exitY=0;exitDx=0;exitDy=0;entryX=1;entryY=0.5;entryDx=0;entryDy=0;strokeWidth=2;fillColor=#ffe6cc;strokeColor=#d79b00;" edge="1" parent="1" source="m6TL4uyU6H2lGprT68yy-98" target="m6TL4uyU6H2lGprT68yy-96">
          <mxGeometry relative="1" as="geometry" />
        </mxCell>
        <mxCell id="m6TL4uyU6H2lGprT68yy-98" value="" style="ellipse;whiteSpace=wrap;html=1;aspect=fixed;fillColor=#dae8fc;strokeColor=#6c8ebf;sketch=1;curveFitting=1;jiggle=2;fillStyle=hachure;" vertex="1" parent="1">
          <mxGeometry x="400" y="1540" width="140" height="140" as="geometry" />
        </mxCell>
        <mxCell id="m6TL4uyU6H2lGprT68yy-99" value="&lt;b&gt;&lt;font face=&quot;Comic Sans MS&quot; style=&quot;font-size: 23px;&quot;&gt;Process A&lt;/font&gt;&lt;/b&gt;" style="rounded=0;whiteSpace=wrap;html=1;gradientColor=none;fillColor=none;strokeColor=none;" vertex="1" parent="1">
          <mxGeometry x="410" y="1580" width="120" height="60" as="geometry" />
        </mxCell>
      </root>
    </mxGraphModel>
  </diagram>
</mxfile>
